 <svg  version="1.0" xmlns="http://www.w3.org/2000/svg"  width="175.000000pt" height="143.000000pt" viewBox="0 0 175.000000 143.000000"  preserveAspectRatio="xMidYMid meet">  <g transform="translate(0.000000,143.000000) scale(0.100000,-0.100000)" fill="#f7f9fa" stroke="none"> <path d="M1220 1350 c-134 -12 -247 -60 -335 -141 l-42 -39 -14 26 c-22 42 -97 102 -153 123 -118 44 -277 36 -411 -20 -95 -39 -119 -65 -112 -118 6 -47 40 -99 73 -111 19 -8 38 -2 92 26 92 48 172 56 230 24 22 -12 46 -34 53 -48 23 -42 17 -132 -11 -185 -14 -26 -130 -176 -259 -333 l-234 -286 6 -65 c4 -36 13 -76 22 -89 l15 -24 358 0 c400 0 389 -2 407 69 l10 41 37 -25 c20 -13 72 -37 115 -52 73 -26 88 -28 243 -27 150 0 172 3 243 26 43 14 93 38 112 53 30 22 35 32 35 68 0 46 -27 114 -54 136 -15 12 -30 10 -119 -20 -90 -30 -114 -34 -207 -34 -99 0 -108 2 -160 31 -41 23 -63 45 -88 85 -50 83 -57 118 -57 289 1 138 3 161 24 214 65 165 220 215 465 151 70 -18 102 -22 116 -15 22 12 59 85 67 132 4 30 1 38 -26 61 -71 59 -263 93 -441 77z m-430 -978 c17 -36 30 -66 30 -68 0 -2 -84 -4 -186 -4 -102 0 -184 4 -182 9 2 4 64 83 138 174 l135 167 18 -107 c11 -68 28 -131 47 -171z"/> <path d="M1248 1057 c-84 -24 -132 -72 -162 -160 -21 -62 -22 -303 -2 -360 24 -67 58 -106 120 -137 84 -42 86 -42 88 38 2 98 1 101 -37 143 -40 44 -39 35 -21 233 19 201 36 214 36 27 0 -110 3 -142 13 -139 8 3 13 44 17 136 7 178 24 176 30 -3 7 -182 24 -182 28 0 2 111 5 135 17 135 13 0 15 -23 15 -140 0 -118 2 -140 15 -140 13 0 15 22 15 140 0 85 4 140 10 140 14 0 18 -26 29 -189 8 -118 7 -151 -4 -178 -8 -18 -18 -33 -24 -33 -29 0 -41 -33 -41 -116 0 -84 0 -85 23 -78 72 22 119 61 153 124 16 30 19 63 22 213 3 165 2 180 -18 222 -26 55 -77 100 -127 115 -64 18 -145 21 -195 7z"/> </g> </svg> 