<?xml version="1.0" standalone="no"?>
<!DOCTYPE svg PUBLIC "-//W3C//DTD SVG 20010904//EN"
 "http://www.w3.org/TR/2001/REC-SVG-20010904/DTD/svg10.dtd">
<svg version="1.0" xmlns="http://www.w3.org/2000/svg"
 width="142.000000pt" height="110.000000pt" viewBox="0 0 142.000000 110.000000"
 preserveAspectRatio="xMidYMid meet">
<metadata>
Created by potrace 1.10, written by Peter Selinger 2001-2011
</metadata>
<g transform="translate(0.000000,110.000000) scale(0.100000,-0.100000)"
fill="#000000" stroke="none">
<path d="M885 1030 c-78 -13 -115 -27 -177 -65 l-57 -36 -45 35 c-64 49 -107
61 -216 61 -111 0 -189 -21 -244 -67 -30 -24 -36 -36 -36 -67 0 -47 35 -102
73 -115 21 -8 37 -5 74 13 25 12 68 25 94 28 42 5 50 2 73 -20 16 -16 26 -37
26 -54 0 -51 -11 -67 -244 -347 -60 -72 -115 -146 -123 -165 -20 -46 -9 -116
22 -147 l24 -24 263 0 c231 0 267 2 288 17 14 9 28 21 31 25 3 5 23 2 45 -6
137 -53 356 -51 466 5 40 20 78 63 78 88 0 68 -49 141 -95 141 -30 0 -29 -2
-8 46 25 57 26 295 1 341 -20 35 -24 68 -8 58 17 -10 77 57 88 99 19 67 -17
113 -112 141 -62 19 -213 27 -281 15z m-352 -52 c46 -20 107 -77 107 -100 0
-6 16 5 36 26 66 68 175 106 305 106 149 0 271 -40 277 -92 3 -26 -28 -101
-48 -113 -6 -3 -49 4 -97 16 -151 37 -261 10 -310 -78 -29 -51 -47 -170 -38
-247 13 -118 50 -186 120 -224 47 -26 173 -20 262 11 l73 26 20 -26 c24 -31
33 -60 28 -99 -2 -24 -13 -34 -58 -56 -140 -70 -392 -58 -494 23 l-26 20 0
-29 c0 -16 -6 -35 -14 -41 -10 -9 -92 -12 -283 -12 l-268 0 -12 23 c-7 13 -13
42 -13 65 0 41 9 54 180 263 195 240 212 270 191 342 -22 72 -104 88 -208 39
-55 -27 -63 -28 -82 -15 -29 21 -54 72 -47 98 10 36 109 86 201 100 53 7 148
-5 198 -26z m579 -205 c18 -10 43 -37 55 -59 20 -35 23 -53 23 -164 0 -151
-18 -200 -85 -237 -60 -34 -65 -31 -65 38 0 55 3 64 31 90 30 28 30 31 25 94
-3 36 -9 94 -12 130 -9 105 -26 78 -23 -37 2 -72 -1 -103 -9 -106 -9 -3 -12
25 -12 102 0 64 -4 106 -10 106 -6 0 -10 -42 -10 -105 0 -63 -4 -105 -10 -105
-6 0 -10 42 -10 105 0 137 -18 139 -22 3 -4 -133 -23 -129 -23 5 0 158 -16
119 -31 -75 -6 -84 -6 -87 20 -113 23 -23 26 -34 26 -92 l0 -65 -27 7 c-52 12
-88 40 -111 85 -21 41 -23 56 -20 170 4 151 19 191 89 228 37 20 54 23 111 19
41 -2 79 -12 100 -24z m-68 -269 c16 -6 23 -44 8 -44 -5 0 -14 -11 -22 -24 -7
-14 -18 -22 -24 -20 -18 7 -58 72 -51 83 7 12 64 15 89 5z"/>
<path d="M453 365 l-103 -125 139 0 138 0 -24 49 c-14 27 -30 83 -36 125 l-12
76 -102 -125z m96 -2 c5 -21 13 -50 17 -65 l6 -28 -71 0 c-47 0 -71 4 -71 11
0 15 88 119 100 119 5 0 14 -17 19 -37z"/>
</g>
</svg>
